<svg width="123" height="38" viewBox="0 0 123 38" fill="none" xmlns="http://www.w3.org/2000/svg">
<path d="M56.8297 28.2205C55.9899 27.6555 55.4009 26.8041 55.1803 25.8363C54.8259 24.4427 54.6627 23.0099 54.6949 21.5749V19.1605C54.6604 17.6997 54.8555 16.2424 55.2737 14.8387C55.5565 13.8758 56.1718 13.0362 57.0164 12.4605C57.9686 11.9293 59.0555 11.6678 60.1533 11.706C61.4168 11.706 62.45 11.9595 63.2217 12.4605C64.0309 13.052 64.647 13.8669 64.9022 14.8387C65.2881 16.2511 65.4873 17.6877 65.4188 19.1605V21.5749C65.4499 23.0175 65.2943 24.4601 64.9022 25.8665C64.6482 26.828 64.0533 27.672 63.2217 28.2507C62.45 28.7517 61.3794 28.9991 60.06 28.9991C58.7031 28.969 57.6015 28.7215 56.8235 28.2145L56.8297 28.2205ZM61.1865 25.5888C61.4168 25.0516 61.5101 24.1402 61.5101 22.9209V17.7541C61.5482 16.8657 61.4389 15.9772 61.1865 15.1224C61.1198 14.8814 60.9735 14.6684 60.7701 14.5157C60.5666 14.3631 60.3172 14.2794 60.06 14.2773C59.8054 14.2785 59.5585 14.3624 59.3588 14.5156C59.1591 14.6687 59.0181 14.8824 58.9583 15.1224C58.7031 15.9674 58.6035 16.8728 58.6347 17.7541V22.9511C58.6347 24.1764 58.7342 25.0818 58.9583 25.619C59.0828 26.12 59.5434 26.464 60.0911 26.4338C60.3446 26.4313 60.59 26.3468 60.7884 26.1938C60.9869 26.0407 61.1269 25.8278 61.1865 25.5888ZM116.456 21.605V22.4501C116.456 23.2649 116.493 24.0496 116.555 24.8645C116.583 25.2814 116.729 25.6827 116.978 26.0234C117.103 26.1503 117.254 26.2495 117.421 26.3141C117.589 26.3787 117.769 26.4072 117.949 26.3976C118.193 26.4138 118.436 26.3601 118.649 26.2431C118.861 26.1261 119.034 25.951 119.144 25.7397C119.368 25.3051 119.468 24.5808 119.499 23.5486L122.823 23.7659C122.854 23.9657 122.866 24.1677 122.86 24.3695C122.86 25.8966 122.437 27.0556 121.565 27.8101C120.694 28.5646 119.468 28.9388 117.881 28.9388C115.976 28.9388 114.651 28.3412 113.879 27.1883C113.107 26.0355 112.715 24.2367 112.715 21.7922V18.8828C112.715 16.3718 113.101 14.555 113.91 13.3961C114.719 12.2372 116.076 11.6758 117.98 11.6758C119.306 11.6758 120.339 11.9233 121.049 12.4001C121.796 12.9313 122.337 13.71 122.567 14.5912C122.891 15.9372 123.053 17.3436 122.984 18.7259V21.5749L116.456 21.605ZM116.947 14.5912C116.707 14.9343 116.571 15.3358 116.555 15.7501C116.493 16.5636 116.462 17.379 116.462 18.1947V19.3838H119.306V18.1947C119.306 17.3798 119.269 16.565 119.175 15.7501C119.148 15.3332 119.001 14.932 118.752 14.5912C118.64 14.4698 118.5 14.3755 118.343 14.3157C118.186 14.256 118.017 14.2325 117.85 14.2472C117.682 14.2301 117.512 14.2524 117.355 14.3123C117.198 14.3722 117.058 14.4678 116.947 14.5912ZM47.3941 21.2912L43 5.84504H46.8464L48.3962 12.8347C48.7821 14.555 49.0746 16.0338 49.2676 17.2531H49.392C49.529 16.3718 49.8153 14.9353 50.2634 12.8649L51.8816 5.84504H55.7281L51.2717 21.2972V28.7215H47.4253V21.2972H47.3941V21.2912ZM77.9228 12.0199V28.7215H74.8855L74.5619 26.6813H74.4623C73.6532 28.2205 72.3959 28.9991 70.7528 28.9991C69.62 28.9991 68.7798 28.6249 68.2321 27.9066C67.6781 27.1823 67.4229 26.0536 67.4229 24.4903V12.0199H71.3005V24.273C71.2725 24.8155 71.3593 25.3578 71.5557 25.8665C71.6298 26.0185 71.7499 26.145 71.9 26.2291C72.0501 26.3132 72.2231 26.3509 72.3959 26.3373C72.7447 26.3292 73.0829 26.2199 73.3668 26.0234C73.6652 25.8454 73.9015 25.5847 74.0453 25.2749V12.0199H77.9228ZM97.7898 12.0199V28.7215H94.7525L94.4288 26.6813H94.3292C93.5201 28.2205 92.2629 28.9991 90.6197 28.9991C89.487 28.9991 88.6467 28.6249 88.099 27.9066C87.5451 27.1823 87.2899 26.0536 87.2899 24.4903V12.0199H91.1675V24.273C91.1394 24.8155 91.2263 25.3578 91.4226 25.8665C91.4967 26.0185 91.6168 26.145 91.767 26.2291C91.9171 26.3132 92.0901 26.3509 92.2629 26.3373C92.6116 26.3292 92.9499 26.2199 93.2338 26.0234C93.5321 25.8454 93.7685 25.5847 93.9122 25.2749V12.0199H97.7898ZM88.4538 8.88115H84.6074V28.7215H80.8294V8.88719H76.983V5.84504H88.4538V8.88719V8.88115ZM110.611 14.6818C110.387 13.6496 110.001 12.8709 109.485 12.3941C108.881 11.8985 108.109 11.6401 107.319 11.6698C106.603 11.6665 105.903 11.8773 105.315 12.2734C104.706 12.6493 104.215 13.1795 103.896 13.8065H103.864V5H100.149V28.7215H103.348L103.734 27.1521H103.827C104.13 27.7224 104.603 28.1913 105.184 28.4982C105.8 28.8211 106.488 28.9931 107.188 28.9991C107.796 29.0131 108.394 28.855 108.91 28.5441C109.427 28.2332 109.838 27.783 110.095 27.2487C110.711 26.0898 111.028 24.2367 111.028 21.762V19.1303C111.006 17.6393 110.867 16.1522 110.611 14.6818ZM107.064 21.4843C107.064 22.4199 107.026 23.3917 106.902 24.3333C106.861 24.8597 106.681 25.367 106.379 25.8061C106.263 25.9448 106.115 26.0561 105.948 26.1314C105.781 26.2067 105.598 26.244 105.414 26.2407C105.108 26.2506 104.806 26.1752 104.543 26.0234C104.273 25.8611 104.05 25.6346 103.896 25.3655V15.9071C104.017 15.4803 104.251 15.0915 104.574 14.7783C104.705 14.6391 104.865 14.528 105.042 14.4521C105.22 14.3762 105.413 14.3372 105.607 14.3377C105.962 14.3377 106.317 14.4946 106.51 14.7783C106.771 15.2491 106.933 15.7441 106.964 16.2813C107.057 17.2833 107.088 18.2852 107.088 19.2872L107.064 21.4843Z" fill="#F1F1F1"/>
<path d="M20.125 12.375C20.7715 13.4623 21.3097 14.6751 21.6667 15.8889C21.8382 16.4722 22.01 17.0199 22.4028 17.5C22.9132 18.1238 24.1951 19.3955 25.125 18.9306C25.6023 18.6919 25.7791 17.8755 26.3125 17.7569C26.6751 17.6764 27.0087 17.498 27.375 17.4028C27.5566 17.3556 29.0187 17.1806 28.4583 16.9722C26.8273 16.3658 25.1919 15.7753 23.5625 15.1597C23.112 14.9895 22.0258 14.8945 22 14.25C21.9915 14.0378 22.393 13.6389 22.1806 13.6389C21.8646 13.6389 22.212 14.2793 22.3194 14.5764C22.9166 16.2274 22.2956 17.1042 21.3056 18.4306C20.7396 19.1887 20.5 19.5988 20.5 20.5417C20.5 21.2318 22.0554 19.8268 22.1319 19.7708C23.0796 19.0778 24.0665 18.4346 25 17.7222C25.1492 17.6084 25.5979 17.375 25.2917 17.375C23.167 17.375 21.0182 17.2683 18.9028 17.4722C16.9485 17.6606 19.2389 15.1169 19.5833 14.5486C19.9668 13.9158 20.2977 13.2606 20.7222 12.6528C20.8015 12.5392 21.4305 11.5553 20.9167 12.0486C19.9672 12.9601 19.9172 14.5494 19.9583 15.7639C19.9833 16.4993 20.0507 17.3458 20.4306 18C20.5159 18.147 21.0942 18.8867 21.3472 18.75C22.2603 18.2567 23.1888 15.1062 23.4097 14.5278C23.51 14.2652 25.7708 9.27313 24.5972 8.88194C23.6187 8.55577 22.9344 11.3904 22.9097 11.7361C22.7237 14.3407 24.2683 16.5343 26.0417 18.2639C26.1333 18.3533 26.4044 18.4073 26.3333 18.5139C26.2627 18.6198 26.1347 18.3539 26.0278 18.2847C25.7408 18.099 25.4491 17.9205 25.1528 17.75C23.7764 16.9582 22.2461 15.9567 20.6667 15.625C20.1961 15.5262 20.949 15.625 21.125 15.625" stroke="#F1F1F1" stroke-width="3" stroke-linecap="round"/>
<path d="M40.2888 8.74831C40.0968 8.02345 39.718 7.36187 39.1904 6.82982C38.6628 6.29777 38.0049 5.91393 37.2827 5.71674C34.6321 5 24 5 24 5C24 5 13.3679 5 10.7159 5.71674C9.99399 5.91428 9.3365 6.29826 8.80919 6.83028C8.28189 7.36229 7.90325 8.02369 7.71117 8.74831C7 11.4222 7 17 7 17C7 17 7 22.5778 7.71117 25.2517C7.90325 25.9765 8.28205 26.6381 8.80964 27.1702C9.33723 27.7022 9.99509 28.0861 10.7173 28.2833C13.3679 29 24 29 24 29C24 29 34.6321 29 37.2841 28.2833C38.0064 28.0862 38.6643 27.7024 39.1919 27.1703C39.7195 26.6383 40.0983 25.9766 40.2902 25.2517C41 22.5778 41 17 41 17C41 17 41 11.4222 40.2888 8.74831ZM20.5221 22.064V11.936L29.4088 17L20.5221 22.064Z" fill="#FF0000"/>
</svg>
